<svg width="24" height="20" viewBox="0 0 24 20" fill="none" xmlns="http://www.w3.org/2000/svg">
<path d="M23.1429 6.57142C23.1429 6.11675 22.9622 5.68072 22.6408 5.35923C22.3193 5.03775 21.8832 4.85713 21.4286 4.85713H18L15.4286 1.42856H8.57146L6.00003 4.85713H2.57146C2.1168 4.85713 1.68077 5.03775 1.35928 5.35923C1.03779 5.68072 0.857178 6.11675 0.857178 6.57142V16.8571C0.857178 17.3118 1.03779 17.7479 1.35928 18.0693C1.68077 18.3907 2.1168 18.5714 2.57146 18.5714H21.4286C21.8832 18.5714 22.3193 18.3907 22.6408 18.0693C22.9622 17.7479 23.1429 17.3118 23.1429 16.8571V6.57142Z" stroke="#3C3F41" stroke-width="1.5" stroke-linecap="round" stroke-linejoin="round"/>
<path d="M12.0001 14.7143C14.1303 14.7143 15.8572 12.9874 15.8572 10.8571C15.8572 8.7269 14.1303 7 12.0001 7C9.86985 7 8.14294 8.7269 8.14294 10.8571C8.14294 12.9874 9.86985 14.7143 12.0001 14.7143Z" stroke="#3C3F41" stroke-width="1.5" stroke-linecap="round" stroke-linejoin="round"/>
</svg>
