<svg width="14" height="14" viewBox="0 0 14 14" fill="none" xmlns="http://www.w3.org/2000/svg">
<path d="M13.5 8H10C9.73478 8 9.48043 8.10536 9.29289 8.29289C9.10536 8.48043 9 8.73478 9 9C9 9.53043 8.78929 10.0391 8.41421 10.4142C8.03914 10.7893 7.53043 11 7 11C6.46957 11 5.96086 10.7893 5.58579 10.4142C5.21071 10.0391 5 9.53043 5 9C5 8.73478 4.89464 8.48043 4.70711 8.29289C4.51957 8.10536 4.26522 8 4 8H0.5V12.5C0.5 12.7652 0.605357 13.0196 0.792893 13.2071C0.98043 13.3946 1.23478 13.5 1.5 13.5H12.5C12.7652 13.5 13.0196 13.3946 13.2071 13.2071C13.3946 13.0196 13.5 12.7652 13.5 12.5V8Z" stroke="black" stroke-linecap="round" stroke-linejoin="round"/>
<path d="M4.5 4L7 6.5L9.5 4" stroke="black" stroke-linecap="round" stroke-linejoin="round"/>
<path d="M7 0.5V6.5" stroke="black" stroke-linecap="round" stroke-linejoin="round"/>
</svg>
