<svg width="24" height="24" viewBox="0 0 24 24" fill="none" xmlns="http://www.w3.org/2000/svg">
<g clip-path="url(#clip0_24_1432)">
<path d="M2.57143 23.1429L21.4286 23.1429C22.3753 23.1429 23.1429 22.3753 23.1429 21.4286L23.1429 11.1429C23.1429 10.1961 22.3753 9.42857 21.4286 9.42857L2.57142 9.42857C1.62462 9.42857 0.857139 10.1961 0.857139 11.1429L0.85714 21.4286C0.85714 22.3753 1.62463 23.1429 2.57143 23.1429Z" stroke="black" stroke-linecap="round" stroke-linejoin="round"/>
<path d="M14.5714 14.1429L9.42855 14.1429" stroke="black" stroke-linecap="round" stroke-linejoin="round"/>
<path d="M19.7143 14.1429L18 14.1429" stroke="black" stroke-linecap="round" stroke-linejoin="round"/>
<path d="M6 14.1429L4.28571 14.1429" stroke="black" stroke-linecap="round" stroke-linejoin="round"/>
<path d="M19.7143 18.4286L18 18.4286" stroke="black" stroke-linecap="round" stroke-linejoin="round"/>
<path d="M15.1427 18.4286L13.4284 18.4286" stroke="black" stroke-linecap="round" stroke-linejoin="round"/>
<path d="M10.5716 18.4286L8.85728 18.4286" stroke="black" stroke-linecap="round" stroke-linejoin="round"/>
<path d="M6 18.4286L4.28571 18.4286" stroke="black" stroke-linecap="round" stroke-linejoin="round"/>
<path d="M15.4286 4.28571L12 0.857134L8.57142 4.28571" stroke="black" stroke-linecap="round" stroke-linejoin="round"/>
</g>
<defs>
<clipPath id="clip0_24_1432">
<rect width="24" height="24" fill="white" transform="translate(24 24) rotate(180)"/>
</clipPath>
</defs>
</svg>
