<svg width="162" height="20" viewBox="0 0 162 20" fill="none" xmlns="http://www.w3.org/2000/svg">
<path d="M0 19.6078V0H2.89829V19.6078H0Z" fill="#A3E000"/>
<path d="M13.5589 20C12.152 20 10.9232 19.7106 9.87273 19.1317C8.82222 18.5341 7.99682 17.7031 7.39652 16.6387C6.81499 15.5556 6.52422 14.3044 6.52422 12.8852V12.549C6.52422 11.1111 6.81499 9.85994 7.39652 8.79552C7.97806 7.71242 8.7847 6.88142 9.81645 6.30252C10.867 5.70495 12.0769 5.40616 13.4463 5.40616C14.7782 5.40616 15.9413 5.70495 16.9355 6.30252C17.9485 6.88142 18.7364 7.69374 19.2992 8.7395C19.862 9.78525 20.1434 11.0084 20.1434 12.409V13.5014H9.47879C9.51631 14.7152 9.91963 15.6863 10.6888 16.4146C11.4766 17.1242 12.4521 17.479 13.6152 17.479C14.7032 17.479 15.5192 17.2362 16.0632 16.7507C16.626 16.2652 17.0575 15.7049 17.3576 15.07L19.7494 16.3025C19.4868 16.8254 19.1022 17.3763 18.5957 17.9552C18.108 18.5341 17.4608 19.0196 16.6542 19.4118C15.8475 19.8039 14.8158 20 13.5589 20ZM9.50693 11.2885H17.1888C17.1138 10.2428 16.7386 9.43044 16.0632 8.85154C15.3879 8.25397 14.5062 7.95518 13.4182 7.95518C12.3302 7.95518 11.4391 8.25397 10.745 8.85154C10.0697 9.43044 9.657 10.2428 9.50693 11.2885Z" fill="#A3E000"/>
<path d="M28.3157 19.6078C27.4715 19.6078 26.7962 19.3557 26.2897 18.8515C25.802 18.3473 25.5581 17.6751 25.5581 16.8347V8.23529H21.7312V5.79832H25.5581V1.23249H28.4564V5.79832H32.5928V8.23529H28.4564V16.3305C28.4564 16.8908 28.719 17.1709 29.2443 17.1709H32.1425V19.6078H28.3157Z" fill="#A3E000"/>
<path d="M35.435 19.6078V16.0784L43.6234 8.62745V8.23529H35.7164V5.79832H46.7749V9.35574L38.5584 16.8067V17.1709H47V19.6078H35.435Z" fill="#A3E000"/>
<path d="M149.33 7.05447C148.688 5.97797 147.81 5.15608 146.695 4.58953C145.583 4.02394 144.33 3.7409 142.936 3.73994H127.325C127.322 3.73994 127.319 3.7397 127.316 3.7397C125.918 3.7397 124.663 4.02297 123.548 4.58953C122.433 5.15608 121.555 5.97797 120.913 7.05447C120.271 8.13121 119.95 9.42499 119.95 10.936V11.3894C119.95 12.9007 120.271 14.1942 120.913 15.2707C121.555 16.3475 122.433 17.1691 123.548 17.7359C124.663 18.3024 125.918 18.5857 127.316 18.5857C127.319 18.5857 127.322 18.5855 127.325 18.5855H142.936C144.33 18.5843 145.583 18.3012 146.695 17.7359C147.81 17.1691 148.688 16.3475 149.33 15.2707C149.972 14.1942 150.294 12.9007 150.294 11.3894V10.936C150.294 9.42499 149.972 8.13121 149.33 7.05447ZM142.936 6.91307C144.046 6.915 144.955 7.26862 145.661 7.97536C146.37 8.68355 146.724 9.69911 146.724 11.0208V11.3043C146.724 12.6268 146.365 13.6416 145.647 14.3501C144.931 15.0566 144.027 15.4102 142.936 15.4121H127.325C127.322 15.4121 127.319 15.4126 127.316 15.4126C126.221 15.4126 125.314 15.0585 124.596 14.3501C123.878 13.6416 123.52 12.6268 123.52 11.3043V11.0208C123.52 9.69911 123.878 8.68355 124.596 7.97536C125.314 7.26693 126.221 6.91283 127.316 6.91283L142.936 6.91307Z" fill="#6954D9"/>
<path d="M145.855 11.5794V10.8312C145.855 9.11256 144.457 7.71424 142.738 7.71424H141.675C139.956 7.71424 138.558 9.11256 138.558 10.8312V11.5794C138.558 13.2981 139.956 14.6962 141.675 14.6962H142.738C144.457 14.6962 145.855 13.2981 145.855 11.5794ZM144.24 11.2475L140.897 13.0662V9.42859L144.24 11.2475Z" fill="#A3E000"/>
<path d="M152.712 18.5539V4.39585H156.252V5.99434H156.766C156.975 5.42345 157.318 5.0048 157.793 4.73839C158.288 4.47197 158.859 4.33876 159.506 4.33876H161.219V7.53575H159.449C158.535 7.53575 157.784 7.78313 157.194 8.2779C156.604 8.75364 156.309 9.4958 156.309 10.5044V18.5539H152.712Z" fill="#6954D9"/>
<path d="M51 18.5539V4.39585H54.5395V5.93725H55.0533C55.3007 5.46151 55.7098 5.05238 56.2807 4.70984C56.8516 4.34828 57.6033 4.1675 58.5357 4.1675C59.5443 4.1675 60.3531 4.36731 60.962 4.76693C61.571 5.14752 62.0372 5.65181 62.3607 6.27979H62.8745C63.198 5.67084 63.6547 5.16655 64.2446 4.76693C64.8346 4.36731 65.6719 4.1675 66.7566 4.1675C67.6319 4.1675 68.4217 4.35779 69.1258 4.73839C69.8489 5.09995 70.4198 5.66132 70.8384 6.42251C71.2761 7.16467 71.4949 8.10664 71.4949 9.24842V18.5539H67.8983V9.50532C67.8983 8.7251 67.6985 8.1447 67.2989 7.7641C66.8993 7.36448 66.3379 7.16467 65.6148 7.16467C64.7965 7.16467 64.159 7.43108 63.7023 7.96391C63.2646 8.47771 63.0458 9.21987 63.0458 10.1904V18.5539H59.4492V9.50532C59.4492 8.7251 59.2494 8.1447 58.8497 7.7641C58.4501 7.36448 57.8887 7.16467 57.1656 7.16467C56.3473 7.16467 55.7098 7.43108 55.2531 7.96391C54.8154 8.47771 54.5966 9.21987 54.5966 10.1904V18.5539H51Z" fill="#6954D9"/>
<path d="M81.8142 18.9535C80.406 18.9535 79.1596 18.6586 78.0749 18.0687C77.0092 17.4597 76.1719 16.6129 75.563 15.5282C74.9731 14.4245 74.6781 13.1305 74.6781 11.6462V11.3036C74.6781 9.81931 74.9731 8.5348 75.563 7.45011C76.1529 6.34639 76.9807 5.49957 78.0464 4.90965C79.112 4.3007 80.3489 3.99623 81.7571 3.99623C83.1463 3.99623 84.3547 4.31022 85.3823 4.9382C86.4099 5.54715 87.2091 6.40348 87.78 7.5072C88.3509 8.59189 88.6364 9.85737 88.6364 11.3036V12.531H78.3318C78.3699 13.5015 78.7314 14.2913 79.4165 14.9002C80.1016 15.5092 80.9389 15.8137 81.9284 15.8137C82.937 15.8137 83.6791 15.5948 84.1549 15.1571C84.6306 14.7194 84.9922 14.2342 85.2396 13.7014L88.1797 15.2428C87.9132 15.7375 87.5231 16.2799 87.0093 16.8698C86.5146 17.4407 85.8485 17.9355 85.0112 18.3541C84.1739 18.7537 83.1082 18.9535 81.8142 18.9535ZM78.3603 9.84785H84.9827C84.9066 9.02958 84.5735 8.37305 83.9836 7.87828C83.4127 7.38351 82.6611 7.13612 81.7286 7.13612C80.7581 7.13612 79.9874 7.38351 79.4165 7.87828C78.8456 8.37305 78.4936 9.02958 78.3603 9.84785Z" fill="#6954D9"/>
<path d="M91.8376 18.5539V4.39585H95.3771V6.25124H95.8909C96.1193 5.75647 96.5474 5.29025 97.1754 4.85256C97.8034 4.39585 98.7549 4.1675 100.03 4.1675C101.134 4.1675 102.095 4.4244 102.913 4.9382C103.75 5.43297 104.397 6.12755 104.854 7.02195C105.311 7.89731 105.539 8.92491 105.539 10.1048V18.5539H101.942V10.3902C101.942 9.32454 101.676 8.52529 101.143 7.99246C100.629 7.45963 99.8871 7.19321 98.9166 7.19321C97.8129 7.19321 96.9566 7.56429 96.3476 8.30645C95.7387 9.02958 95.4342 10.0477 95.4342 11.3607V18.5539H91.8376Z" fill="#6954D9"/>
<path d="M114.46 18.5539C113.528 18.5539 112.767 18.2685 112.177 17.6976C111.606 17.1077 111.32 16.3275 111.32 15.3569V7.36448H107.781V4.39585H111.32V0H114.917V4.39585H118.799V7.36448H114.917V14.729C114.917 15.2998 115.183 15.5853 115.716 15.5853H118.456V18.5539H114.46Z" fill="#6954D9"/>
</svg>
