<svg width="20" height="24" viewBox="0 0 20 24" fill="none" xmlns="http://www.w3.org/2000/svg">
<path d="M14.2858 11.1429C14.2858 12.2795 13.8343 13.3696 13.0305 14.1733C12.2268 14.977 11.1367 15.4286 10.0001 15.4286C8.86343 15.4286 7.77333 14.977 6.96961 14.1733C6.16588 13.3696 5.71436 12.2795 5.71436 11.1429V5.14286C5.71436 4.00622 6.16588 2.91612 6.96961 2.1124C7.77333 1.30868 8.86343 0.857147 10.0001 0.857147C11.1367 0.857147 12.2268 1.30868 13.0305 2.1124C13.8343 2.91612 14.2858 4.00622 14.2858 5.14286V11.1429Z" stroke="#3C3F41" stroke-width="1.5" stroke-linecap="round" stroke-linejoin="round"/>
<path d="M18.5714 12C18.5737 13.0137 18.3757 14.0178 17.9889 14.9548C17.602 15.8918 17.0339 16.7431 16.317 17.4598C15.6002 18.1766 14.749 18.7449 13.812 19.1316C12.875 19.5185 11.8709 19.7165 10.8572 19.7143H9.14289C8.1292 19.7165 7.12506 19.5185 6.1881 19.1316C5.25114 18.7449 4.39982 18.1766 3.68303 17.4598C2.96624 16.7431 2.39811 15.8918 2.01123 14.9548C1.62435 14.0178 1.42635 13.0137 1.42861 12" stroke="#3C3F41" stroke-width="1.5" stroke-linecap="round" stroke-linejoin="round"/>
<path d="M10 19.7143V23.1429" stroke="#3C3F41" stroke-width="1.5" stroke-linecap="round" stroke-linejoin="round"/>
</svg>
