<svg width="34" height="34" viewBox="0 0 34 34" fill="none" xmlns="http://www.w3.org/2000/svg">
<path d="M18.6863 29.3137C22.3651 31.1652 26.7447 32.4621 31.9364 32.919C32.5118 32.9696 33 32.511 33 31.9334V25.7808C33 25.3219 32.6877 24.9219 32.2425 24.8106L25.5493 23.1373C25.2085 23.0521 24.848 23.152 24.5996 23.4004L18.6863 29.3137ZM18.6863 29.3137C12.455 26.1775 8.2341 21.45 5.48233 16.5177M5.48233 16.5177C2.62217 11.3911 1.34913 6.04324 1.05536 2.03117C1.01407 1.46734 1.46855 1 2.03389 1H8.1802C8.65688 1 9.06729 1.33646 9.16078 1.80388L10.895 10.4752C10.9606 10.8031 10.858 11.142 10.6216 11.3784L5.48233 16.5177Z" stroke="#798288" stroke-width="2"/>
</svg>
