<svg width="30" height="12" viewBox="0 0 30 12" fill="none" xmlns="http://www.w3.org/2000/svg">
<path d="M8.84852 2.62312C6.67006 3.34291 4.43988 4.50721 2.21334 6.24227C1.51829 6.7839 1.48799 7.80773 2.11106 8.43081L3.62408 9.94382C4.11906 10.4388 4.8874 10.5334 5.48765 10.1732L8.10787 8.6011C8.56737 8.3254 8.84852 7.82884 8.84852 7.29298L8.84852 2.62312ZM8.84852 2.62312C12.9536 1.26676 16.8749 1.48879 20.2423 2.44435M20.2423 2.44435C23.321 3.318 25.9365 4.80481 27.8058 6.25911C28.4865 6.78868 28.5013 7.78569 27.8915 8.39553L26.3853 9.90172C25.8711 10.4159 25.0654 10.4957 24.4604 10.0923L20.9216 7.73314C20.4972 7.45021 20.2423 6.9739 20.2423 6.46384V2.44435Z" stroke="#FF0000" stroke-width="2"/>
</svg>
